<svg xmlns="http://www.w3.org/2000/svg" xmlns:xlink="http://www.w3.org/1999/xlink" contentStyleType="text/css" data-diagram-type="SEQUENCE" height="247.8px" preserveAspectRatio="none" style="width:377px;height:247px;background:#FFFFFF;" version="1.1" viewBox="0 0 377 247" width="377.4px" zoomAndPan="magnify"><defs/><g><g><title>.CommandContext</title><rect fill="#FFFFFF" height="30.5473" style="stroke:#181818;stroke-width:0.6;" width="6" x="125.3004" y="129.6691"/></g><g><title>.Parser</title><rect fill="#FFFFFF" height="63.7219" style="stroke:#181818;stroke-width:0.6;" width="6" x="201.7154" y="43.1473"/></g><g><title>.HistoryCommand</title><rect fill="#FFFFFF" height="30.5473" style="stroke:#181818;stroke-width:0.6;" width="6" x="276.7236" y="57.5473"/></g><g><title>.HistoryCommand</title><rect fill="#FFFFFF" height="45.9492" style="stroke:#181818;stroke-width:0.6;" width="6" x="276.7236" y="178.991"/></g><g><title>.Ui</title><rect fill="#FFFFFF" height="8.4" style="stroke:#181818;stroke-width:0.6;" width="6" x="351.7318" y="197.7656"/></g><g><title>.CardCollector</title><rect fill="#000000" fill-opacity="0.00000" height="220.9676" width="4.8" x="37.6427" y="23.1727"/><line style="stroke:#181818;stroke-width:0.3;stroke-dasharray:3,3;" x1="39.6" x2="39.6" y1="23.1727" y2="244.1402"/></g><g><title>.CommandContext</title><rect fill="#000000" fill-opacity="0.00000" height="104.9848" width="4.8" x="125.9004" y="139.1555"/><line style="stroke:#181818;stroke-width:0.3;stroke-dasharray:3,3;" x1="128.0854" x2="128.0854" y1="139.1555" y2="244.1402"/></g><g><title>.Parser</title><rect fill="#000000" fill-opacity="0.00000" height="220.9676" width="4.8" x="202.3154" y="23.1727"/><line style="stroke:#181818;stroke-width:0.3;stroke-dasharray:3,3;" x1="204.7154" x2="204.7154" y1="23.1727" y2="244.1402"/></g><g><title>.HistoryCommand</title><rect fill="#000000" fill-opacity="0.00000" height="177.1066" width="4.8" x="277.3236" y="67.0336"/><line style="stroke:#181818;stroke-width:0.3;stroke-dasharray:3,3;" x1="279.7154" x2="279.7154" y1="67.0336" y2="244.1402"/></g><g><title>.Ui</title><rect fill="#000000" fill-opacity="0.00000" height="220.9676" width="4.8" x="352.3318" y="23.1727"/><line style="stroke:#181818;stroke-width:0.3;stroke-dasharray:3,3;" x1="354.7318" x2="354.7318" y1="23.1727" y2="244.1402"/></g><g class="participant participant-head" data-participant="CardCollector"><rect fill="#009BA3" height="19.5727" rx="1.5" ry="1.5" style="stroke:#181818;stroke-width:0.3;" width="62.0854" x="9" y="3"/><text fill="#FFFFFF" font-family="sans-serif" font-size="8.4" lengthAdjust="spacing" textLength="53.6854" x="13.2" y="16.2645">:CardCollector</text></g><g class="participant participant-head" data-participant="Parser"><rect fill="#4536FF" height="19.5727" rx="1.5" ry="1.5" style="stroke:#181818;stroke-width:0.3;" width="38.4" x="185.5154" y="3"/><text fill="#FFFFFF" font-family="sans-serif" font-size="8.4" lengthAdjust="spacing" textLength="27.0744" x="191.1782" y="16.2645">:Parser</text></g><g class="participant participant-head" data-participant="Ui"><rect fill="#D16C00" height="19.5727" rx="1.5" ry="1.5" style="stroke:#181818;stroke-width:0.3;" width="38.4" x="335.5318" y="3"/><text fill="#FFFFFF" font-family="sans-serif" font-size="8.4" lengthAdjust="spacing" textLength="10.2662" x="349.5987" y="16.2645">:Ui</text></g><g><title>.CommandContext</title><rect fill="#FFFFFF" height="30.5473" style="stroke:#181818;stroke-width:0.6;" width="6" x="125.3004" y="129.6691"/></g><g><title>.Parser</title><rect fill="#FFFFFF" height="63.7219" style="stroke:#181818;stroke-width:0.6;" width="6" x="201.7154" y="43.1473"/></g><g><title>.HistoryCommand</title><rect fill="#FFFFFF" height="30.5473" style="stroke:#181818;stroke-width:0.6;" width="6" x="276.7236" y="57.5473"/></g><g><title>.HistoryCommand</title><rect fill="#FFFFFF" height="45.9492" style="stroke:#181818;stroke-width:0.6;" width="6" x="276.7236" y="178.991"/></g><g><title>.Ui</title><rect fill="#FFFFFF" height="8.4" style="stroke:#181818;stroke-width:0.6;" width="6" x="351.7318" y="197.7656"/></g><g class="message" data-participant-1="CardCollector" data-participant-2="Parser"><polygon fill="#181818" points="194.5154,40.7473,200.5154,43.1473,194.5154,45.5473,196.9154,43.1473" style="stroke:#181818;stroke-width:0.6;"/><line style="stroke:#181818;stroke-width:0.6;" x1="40.0427" x2="198.1154" y1="43.1473" y2="43.1473"/><text fill="#000000" font-family="sans-serif" font-size="7.8" lengthAdjust="spacing" textLength="87.0454" x="77.3563" y="39.9896">parse("history all added")</text></g><g class="message" data-participant-1="Parser" data-participant-2="HistoryCommand"><polygon fill="#181818" points="234.7154,49.1473,240.7154,51.5473,234.7154,53.9473,237.1154,51.5473" style="stroke:#181818;stroke-width:0.6;"/><line style="stroke:#181818;stroke-width:0.6;" x1="207.7154" x2="238.3154" y1="51.5473" y2="51.5473"/></g><rect fill="#BC00D1" height="19.5727" rx="1.5" ry="1.5" style="stroke:#181818;stroke-width:0.3;" width="75.6164" x="241.9154" y="47.9473"/><text fill="#FFFFFF" font-family="sans-serif" font-size="8.4" lengthAdjust="spacing" textLength="67.2164" x="246.1154" y="61.2117">:HistoryCommand</text><g class="message" data-participant-1="HistoryCommand" data-participant-2="Parser"><polygon fill="#181818" points="214.3154,85.6945,208.3154,88.0945,214.3154,90.4945,211.9154,88.0945" style="stroke:#181818;stroke-width:0.6;"/><line style="stroke:#181818;stroke-width:0.6;stroke-dasharray:1.2,1.2;" x1="210.7154" x2="279.1236" y1="88.0945" y2="88.0945"/><text fill="#000000" font-family="sans-serif" font-size="7.8" lengthAdjust="spacing" textLength="34.2469" x="226.5961" y="84.9369">command</text></g><g class="message" data-participant-1="Parser" data-participant-2="CardCollector"><polygon fill="#181818" points="46.6427,104.4691,40.6427,106.8691,46.6427,109.2691,44.2427,106.8691" style="stroke:#181818;stroke-width:0.6;"/><line style="stroke:#181818;stroke-width:0.6;stroke-dasharray:1.2,1.2;" x1="43.0427" x2="204.1154" y1="106.8691" y2="106.8691"/><text fill="#000000" font-family="sans-serif" font-size="7.8" lengthAdjust="spacing" textLength="34.2469" x="105.2556" y="103.7115">command</text></g><g class="message" data-participant-1="CardCollector" data-participant-2="CommandContext"><polygon fill="#181818" points="81.8854,121.2691,87.8854,123.6691,81.8854,126.0691,84.2854,123.6691" style="stroke:#181818;stroke-width:0.6;"/><line style="stroke:#181818;stroke-width:0.6;" x1="40.0427" x2="85.4854" y1="123.6691" y2="123.6691"/></g><rect fill="#D1006C" height="19.5727" rx="1.5" ry="1.5" style="stroke:#181818;stroke-width:0.3;" width="78.4301" x="89.0854" y="120.0691"/><text fill="#FFFFFF" font-family="sans-serif" font-size="8.4" lengthAdjust="spacing" textLength="70.0301" x="93.2854" y="133.3336">:CommandContext</text><g class="message" data-participant-1="CommandContext" data-participant-2="CardCollector"><polygon fill="#181818" points="46.6427,157.8164,40.6427,160.2164,46.6427,162.6164,44.2427,160.2164" style="stroke:#181818;stroke-width:0.6;"/><line style="stroke:#181818;stroke-width:0.6;" x1="43.0427" x2="127.7004" y1="160.2164" y2="160.2164"/><text fill="#000000" font-family="sans-serif" font-size="7.8" lengthAdjust="spacing" textLength="25.1481" x="71.5975" y="157.0588">context</text></g><g class="message" data-participant-1="CardCollector" data-participant-2="HistoryCommand"><polygon fill="#181818" points="269.5236,176.591,275.5236,178.991,269.5236,181.391,271.9236,178.991" style="stroke:#181818;stroke-width:0.6;"/><line style="stroke:#181818;stroke-width:0.6;" x1="40.0427" x2="273.1236" y1="178.991" y2="178.991"/><text fill="#000000" font-family="sans-serif" font-size="7.8" lengthAdjust="spacing" textLength="57.6621" x="129.5521" y="175.8334">execute(context)</text></g><g class="message" data-participant-1="HistoryCommand" data-participant-2="Ui"><polygon fill="#181818" points="344.5318,195.3656,350.5318,197.7656,344.5318,200.1656,346.9318,197.7656" style="stroke:#181818;stroke-width:0.6;"/><line style="stroke:#181818;stroke-width:0.6;" x1="282.7236" x2="348.1318" y1="197.7656" y2="197.7656"/><text fill="#000000" font-family="sans-serif" font-size="7.8" lengthAdjust="spacing" textLength="51.138" x="291.6587" y="194.608">printHistory(...)</text></g><g class="message" data-participant-1="Ui" data-participant-2="HistoryCommand"><polygon fill="#181818" points="289.3236,203.7656,283.3236,206.1656,289.3236,208.5656,286.9236,206.1656" style="stroke:#181818;stroke-width:0.6;"/><line style="stroke:#181818;stroke-width:0.6;stroke-dasharray:1.2,1.2;" x1="285.7236" x2="354.1318" y1="206.1656" y2="206.1656"/></g><g class="message" data-participant-1="HistoryCommand" data-participant-2="CardCollector"><polygon fill="#181818" points="46.6427,222.5402,40.6427,224.9402,46.6427,227.3402,44.2427,224.9402" style="stroke:#181818;stroke-width:0.6;"/><line style="stroke:#181818;stroke-width:0.6;stroke-dasharray:1.2,1.2;" x1="43.0427" x2="279.1236" y1="224.9402" y2="224.9402"/><text fill="#000000" font-family="sans-serif" font-size="7.8" lengthAdjust="spacing" textLength="56.3558" x="131.7053" y="221.7826">commandResult</text></g><line style="stroke:#A80036;stroke-width:1.2;" x1="274.3236" x2="285.1236" y1="227.9402" y2="238.7402"/><line style="stroke:#A80036;stroke-width:1.2;" x1="274.3236" x2="285.1236" y1="238.7402" y2="227.9402"/><!--SRC=[XLBRQiCm37ttLsXvQGjhFg0FXP0LLkYDj64RemmJ2s9ma-0uM_ltSnedgzqqUsaTIUVeI3fFF4j4nH3swYBGBwgJ88GKL2gUy89c2hnPI2KBSo4mKRdqW9PWHI0CefTmkrejmiCs-j8l_RkBbkiW-d2PyjE9PXgQAJohXieAGRXThuEDfjiS5k-7GR8TbIKsUfedx89elnXMyCfBBVbYkbx1TgXLCCWIyoiovX0ldK9YxsOwRyNDeAWVOozj-W5b31bG8Rm9eOdYtrIXAIOaaLX_sjg8eTAaJgB3Et5djkcjdCJKC7o4xlffc3rMBzfeTnRmcN8zQ7RiMXCoUaEW4e7b6S8FLoce59lro6SGg4emyzTnqqd_DnQfttZ6fBBpetPdjgFkx-7aE_akpZPcxmgQohyLz5pVkS2ibJuswCd3szqTRwuDfrqaUQPCQkpx_Wr1p8csvFJU7ZT7qZLzhdXmtWZBIgW1Y_nxR8Qbald5mVq2]--></g></svg>