<?plantuml 1.2026.2?><svg xmlns="http://www.w3.org/2000/svg" xmlns:xlink="http://www.w3.org/1999/xlink" contentStyleType="text/css" data-diagram-type="SEQUENCE" height="928px" preserveAspectRatio="none" style="width:1550px;height:928px;background:#FFFFFF;" version="1.1" viewBox="0 0 1550 928" width="1550px" zoomAndPan="magnify"><defs/><g><rect fill="none" height="528.8047" style="stroke:#000000;stroke-width:1.5;" width="1502.8608" x="40.5586" y="203.6641"/><rect fill="none" height="123.2422" style="stroke:#000000;stroke-width:1.5;" width="1070.2847" x="463.1348" y="305.5547"/><g class="participant-lifeline" data-entity-uid="part1" data-qualified-name="User" id="part1-lifeline"><g><title>User</title><rect fill="#000000" fill-opacity="0.00000" height="763.9141" width="8" x="18.7793" y="82.6094"/><line style="stroke:#181818;stroke-width:0.5;stroke-dasharray:5,5;" x1="22" x2="22" y1="82.6094" y2="846.5234"/></g></g><g class="participant-lifeline" data-entity-uid="part2" data-qualified-name="CardCollector" id="part2-lifeline"><g><title>CardCollector</title><rect fill="#000000" fill-opacity="0.00000" height="763.9141" width="8" x="96.3516" y="82.6094"/><line style="stroke:#181818;stroke-width:0.5;stroke-dasharray:5,5;" x1="99.5586" x2="99.5586" y1="82.6094" y2="846.5234"/></g></g><g class="participant-lifeline" data-entity-uid="part3" data-qualified-name="UndoCommand" id="part3-lifeline"><g><title>UndoCommand</title><rect fill="#000000" fill-opacity="0.00000" height="763.9141" width="8" x="281.106" y="82.6094"/><line style="stroke:#181818;stroke-width:0.5;stroke-dasharray:5,5;" x1="285.082" x2="285.082" y1="82.6094" y2="846.5234"/></g></g><g class="participant-lifeline" data-entity-uid="part4" data-qualified-name="AddCommand" id="part4-lifeline"><g><title>AddCommand</title><rect fill="#000000" fill-opacity="0.00000" height="763.9141" width="8" x="520.8794" y="82.6094"/><line style="stroke:#181818;stroke-width:0.5;stroke-dasharray:5,5;" x1="524.1348" x2="524.1348" y1="82.6094" y2="846.5234"/></g></g><g class="participant-lifeline" data-entity-uid="part5" data-qualified-name="EditCommand" id="part5-lifeline"><g><title>EditCommand</title><rect fill="#000000" fill-opacity="0.00000" height="763.9141" width="8" x="633.9756" y="82.6094"/><line style="stroke:#181818;stroke-width:0.5;stroke-dasharray:5,5;" x1="637.624" x2="637.624" y1="82.6094" y2="846.5234"/></g></g><g class="participant-lifeline" data-entity-uid="part6" data-qualified-name="RemoveCardByIndexCommand" id="part6-lifeline"><g><title>RemoveCardByIndexCommand</title><rect fill="#000000" fill-opacity="0.00000" height="763.9141" width="8" x="801.1475" y="82.6094"/><line style="stroke:#181818;stroke-width:0.5;stroke-dasharray:5,5;" x1="804.3271" x2="804.3271" y1="82.6094" y2="846.5234"/></g></g><g class="participant-lifeline" data-entity-uid="part7" data-qualified-name="RemoveCardByNameCommand" id="part7-lifeline"><g><title>RemoveCardByNameCommand</title><rect fill="#000000" fill-opacity="0.00000" height="763.9141" width="8" x="1024.3364" y="82.6094"/><line style="stroke:#181818;stroke-width:0.5;stroke-dasharray:5,5;" x1="1027.9678" x2="1027.9678" y1="82.6094" y2="846.5234"/></g></g><g class="participant-lifeline" data-entity-uid="part8" data-qualified-name="CardsList" id="part8-lifeline"><g><title>CardsList</title><rect fill="#000000" fill-opacity="0.00000" height="763.9141" width="8" x="1319.3052" y="82.6094"/><line style="stroke:#181818;stroke-width:0.5;stroke-dasharray:5,5;" x1="1322.7397" x2="1322.7397" y1="82.6094" y2="846.5234"/></g></g><g class="participant participant-head" data-entity-uid="part1" data-qualified-name="User" id="part1-head"><text fill="#000000" font-family="sans-serif" font-size="14" lengthAdjust="spacing" textLength="29.5586" x="5" y="79.5332">User</text><ellipse cx="22.7793" cy="13.5" fill="#E2E2F0" rx="8" ry="8" style="stroke:#181818;stroke-width:0.5;"/><path d="M22.7793,21.5 L22.7793,48.5 M9.7793,29.5 L35.7793,29.5 M22.7793,48.5 L9.7793,63.5 M22.7793,48.5 L35.7793,63.5" fill="none" style="stroke:#181818;stroke-width:0.5;"/></g><g class="participant participant-tail" data-entity-uid="part1" data-qualified-name="User" id="part1-tail"><text fill="#000000" font-family="sans-serif" font-size="14" lengthAdjust="spacing" textLength="29.5586" x="5" y="860.0566">User</text><ellipse cx="22.7793" cy="871.6328" fill="#E2E2F0" rx="8" ry="8" style="stroke:#181818;stroke-width:0.5;"/><path d="M22.7793,879.6328 L22.7793,906.6328 M9.7793,887.6328 L35.7793,887.6328 M22.7793,906.6328 L9.7793,921.6328 M22.7793,906.6328 L35.7793,921.6328" fill="none" style="stroke:#181818;stroke-width:0.5;"/></g><g class="participant participant-head" data-entity-uid="part2" data-qualified-name="CardCollector" id="part2-head"><rect fill="#E2E2F0" height="31.6094" rx="2.5" ry="2.5" style="stroke:#181818;stroke-width:0.5;" width="99.5859" x="50.5586" y="50"/><text fill="#000000" font-family="sans-serif" font-size="14" lengthAdjust="spacing" textLength="85.5859" x="57.5586" y="71.5332">CardCollector</text></g><g class="participant participant-tail" data-entity-uid="part2" data-qualified-name="CardCollector" id="part2-tail"><rect fill="#E2E2F0" height="31.6094" rx="2.5" ry="2.5" style="stroke:#181818;stroke-width:0.5;" width="99.5859" x="50.5586" y="845.5234"/><text fill="#000000" font-family="sans-serif" font-size="14" lengthAdjust="spacing" textLength="85.5859" x="57.5586" y="867.0566">CardCollector</text></g><g class="participant participant-head" data-entity-uid="part3" data-qualified-name="UndoCommand" id="part3-head"><rect fill="#E2E2F0" height="31.6094" rx="2.5" ry="2.5" style="stroke:#181818;stroke-width:0.5;" width="112.0479" x="229.082" y="50"/><text fill="#000000" font-family="sans-serif" font-size="14" lengthAdjust="spacing" textLength="98.0479" x="236.082" y="71.5332">UndoCommand</text></g><g class="participant participant-tail" data-entity-uid="part3" data-qualified-name="UndoCommand" id="part3-tail"><rect fill="#E2E2F0" height="31.6094" rx="2.5" ry="2.5" style="stroke:#181818;stroke-width:0.5;" width="112.0479" x="229.082" y="845.5234"/><text fill="#000000" font-family="sans-serif" font-size="14" lengthAdjust="spacing" textLength="98.0479" x="236.082" y="867.0566">UndoCommand</text></g><g class="participant participant-head" data-entity-uid="part4" data-qualified-name="AddCommand" id="part4-head"><rect fill="#E2E2F0" height="31.6094" rx="2.5" ry="2.5" style="stroke:#181818;stroke-width:0.5;" width="103.4893" x="473.1348" y="50"/><text fill="#000000" font-family="sans-serif" font-size="14" lengthAdjust="spacing" textLength="89.4893" x="480.1348" y="71.5332">AddCommand</text></g><g class="participant participant-tail" data-entity-uid="part4" data-qualified-name="AddCommand" id="part4-tail"><rect fill="#E2E2F0" height="31.6094" rx="2.5" ry="2.5" style="stroke:#181818;stroke-width:0.5;" width="103.4893" x="473.1348" y="845.5234"/><text fill="#000000" font-family="sans-serif" font-size="14" lengthAdjust="spacing" textLength="89.4893" x="480.1348" y="867.0566">AddCommand</text></g><g class="participant participant-head" data-entity-uid="part5" data-qualified-name="EditCommand" id="part5-head"><rect fill="#E2E2F0" height="31.6094" rx="2.5" ry="2.5" style="stroke:#181818;stroke-width:0.5;" width="102.7031" x="586.624" y="50"/><text fill="#000000" font-family="sans-serif" font-size="14" lengthAdjust="spacing" textLength="88.7031" x="593.624" y="71.5332">EditCommand</text></g><g class="participant participant-tail" data-entity-uid="part5" data-qualified-name="EditCommand" id="part5-tail"><rect fill="#E2E2F0" height="31.6094" rx="2.5" ry="2.5" style="stroke:#181818;stroke-width:0.5;" width="102.7031" x="586.624" y="845.5234"/><text fill="#000000" font-family="sans-serif" font-size="14" lengthAdjust="spacing" textLength="88.7031" x="593.624" y="867.0566">EditCommand</text></g><g class="participant participant-head" data-entity-uid="part6" data-qualified-name="RemoveCardByIndexCommand" id="part6-head"><rect fill="#E2E2F0" height="31.6094" rx="2.5" ry="2.5" style="stroke:#181818;stroke-width:0.5;" width="211.6406" x="699.3271" y="50"/><text fill="#000000" font-family="sans-serif" font-size="14" lengthAdjust="spacing" textLength="197.6406" x="706.3271" y="71.5332">RemoveCardByIndexCommand</text></g><g class="participant participant-tail" data-entity-uid="part6" data-qualified-name="RemoveCardByIndexCommand" id="part6-tail"><rect fill="#E2E2F0" height="31.6094" rx="2.5" ry="2.5" style="stroke:#181818;stroke-width:0.5;" width="211.6406" x="699.3271" y="845.5234"/><text fill="#000000" font-family="sans-serif" font-size="14" lengthAdjust="spacing" textLength="197.6406" x="706.3271" y="867.0566">RemoveCardByIndexCommand</text></g><g class="participant participant-head" data-entity-uid="part7" data-qualified-name="RemoveCardByNameCommand" id="part7-head"><rect fill="#E2E2F0" height="31.6094" rx="2.5" ry="2.5" style="stroke:#181818;stroke-width:0.5;" width="214.7373" x="920.9678" y="50"/><text fill="#000000" font-family="sans-serif" font-size="14" lengthAdjust="spacing" textLength="200.7373" x="927.9678" y="71.5332">RemoveCardByNameCommand</text></g><g class="participant participant-tail" data-entity-uid="part7" data-qualified-name="RemoveCardByNameCommand" id="part7-tail"><rect fill="#E2E2F0" height="31.6094" rx="2.5" ry="2.5" style="stroke:#181818;stroke-width:0.5;" width="214.7373" x="920.9678" y="845.5234"/><text fill="#000000" font-family="sans-serif" font-size="14" lengthAdjust="spacing" textLength="200.7373" x="927.9678" y="867.0566">RemoveCardByNameCommand</text></g><g class="participant participant-head" data-entity-uid="part8" data-qualified-name="CardsList" id="part8-head"><rect fill="#E2E2F0" height="31.6094" rx="2.5" ry="2.5" style="stroke:#181818;stroke-width:0.5;" width="73.1309" x="1286.7397" y="50"/><text fill="#000000" font-family="sans-serif" font-size="14" lengthAdjust="spacing" textLength="59.1309" x="1293.7397" y="71.5332">CardsList</text></g><g class="participant participant-tail" data-entity-uid="part8" data-qualified-name="CardsList" id="part8-tail"><rect fill="#E2E2F0" height="31.6094" rx="2.5" ry="2.5" style="stroke:#181818;stroke-width:0.5;" width="73.1309" x="1286.7397" y="845.5234"/><text fill="#000000" font-family="sans-serif" font-size="14" lengthAdjust="spacing" textLength="59.1309" x="1293.7397" y="867.0566">CardsList</text></g><g class="message" data-entity-1="part1" data-entity-2="part2" id="msg1"><polygon fill="#181818" points="88.3516,110.9609,98.3516,114.9609,88.3516,118.9609,92.3516,114.9609" style="stroke:#181818;stroke-width:1;"/><line style="stroke:#181818;stroke-width:1;" x1="22.7793" x2="94.3516" y1="114.9609" y2="114.9609"/><text fill="#000000" font-family="sans-serif" font-size="13" lengthAdjust="spacing" textLength="38.1494" x="29.7793" y="110.1045">"undo"</text></g><g class="message" data-entity-1="part2" data-entity-2="part3" id="msg2"><polygon fill="#181818" points="273.106,141.3125,283.106,145.3125,273.106,149.3125,277.106,145.3125" style="stroke:#181818;stroke-width:1;"/><line style="stroke:#181818;stroke-width:1;" x1="100.3516" x2="279.106" y1="145.3125" y2="145.3125"/><text fill="#000000" font-family="sans-serif" font-size="13" lengthAdjust="spacing" textLength="96.1035" x="107.3516" y="140.4561">execute(context)</text></g><g class="message" data-entity-1="part3" data-entity-2="part3" id="msg3"><line style="stroke:#181818;stroke-width:1;" x1="285.106" x2="327.106" y1="175.6641" y2="175.6641"/><line style="stroke:#181818;stroke-width:1;" x1="327.106" x2="327.106" y1="175.6641" y2="188.6641"/><line style="stroke:#181818;stroke-width:1;" x1="286.106" x2="327.106" y1="188.6641" y2="188.6641"/><polygon fill="#181818" points="296.106,184.6641,286.106,188.6641,296.106,192.6641,292.106,188.6641" style="stroke:#181818;stroke-width:1;"/><text fill="#000000" font-family="sans-serif" font-size="13" lengthAdjust="spacing" textLength="225.7734" x="292.106" y="170.8076">history = context.getCommandHistory()</text></g><path d="M40.5586,203.6641 L100.7295,203.6641 L100.7295,212.0156 L90.7295,222.0156 L40.5586,222.0156 L40.5586,203.6641" fill="#EEEEEE" style="stroke:#000000;stroke-width:1.5;"/><rect fill="none" height="528.8047" style="stroke:#000000;stroke-width:1.5;" width="1502.8608" x="40.5586" y="203.6641"/><text fill="#000000" font-family="sans-serif" font-size="13" font-weight="bold" lengthAdjust="spacing" textLength="15.1709" x="55.5586" y="218.1592">alt</text><text fill="#000000" font-family="sans-serif" font-size="11" font-weight="bold" lengthAdjust="spacing" textLength="91.6846" x="115.7295" y="217.083">[history is empty]</text><g class="message" data-entity-1="part3" data-entity-2="part2" id="msg4"><polygon fill="#181818" points="111.3516,240.3672,101.3516,244.3672,111.3516,248.3672,107.3516,244.3672" style="stroke:#181818;stroke-width:1;"/><line style="stroke:#181818;stroke-width:1;" x1="105.3516" x2="284.106" y1="244.3672" y2="244.3672"/><text fill="#000000" font-family="sans-serif" font-size="13" lengthAdjust="spacing" textLength="157.3711" x="117.3516" y="239.5107">ui.echo("Nothing to Undo.")</text></g><line style="stroke:#000000;stroke-width:1;stroke-dasharray:2,2;" x1="40.5586" x2="1543.4194" y1="253.3672" y2="253.3672"/><text fill="#000000" font-family="sans-serif" font-size="11" font-weight="bold" lengthAdjust="spacing" textLength="183.3584" x="45.5586" y="264.7861">[last command was AddCommand]</text><g class="message" data-entity-1="part3" data-entity-2="part4" id="msg5"><polygon fill="#181818" points="512.8794,286.5547,522.8794,290.5547,512.8794,294.5547,516.8794,290.5547" style="stroke:#181818;stroke-width:1;"/><line style="stroke:#181818;stroke-width:1;" x1="285.106" x2="518.8794" y1="290.5547" y2="290.5547"/><text fill="#000000" font-family="sans-serif" font-size="13" lengthAdjust="spacing" textLength="79.4917" x="292.106" y="285.6982">undo(context)</text></g><path d="M463.1348,305.5547 L523.3057,305.5547 L523.3057,313.9063 L513.3057,323.9063 L463.1348,323.9063 L463.1348,305.5547" fill="#EEEEEE" style="stroke:#000000;stroke-width:1.5;"/><rect fill="none" height="123.2422" style="stroke:#000000;stroke-width:1.5;" width="1070.2847" x="463.1348" y="305.5547"/><text fill="#000000" font-family="sans-serif" font-size="13" font-weight="bold" lengthAdjust="spacing" textLength="15.1709" x="478.1348" y="320.0498">alt</text><text fill="#000000" font-family="sans-serif" font-size="11" font-weight="bold" lengthAdjust="spacing" textLength="100.5522" x="538.3057" y="318.9736">[wasMerged = true]</text><g class="message" data-entity-1="part4" data-entity-2="part8" id="msg6"><polygon fill="#181818" points="1311.3052,353.4336,1321.3052,357.4336,1311.3052,361.4336,1315.3052,357.4336" style="stroke:#181818;stroke-width:1;"/><line style="stroke:#181818;stroke-width:1;" x1="524.8794" x2="1317.3052" y1="357.4336" y2="357.4336"/><text fill="#000000" font-family="sans-serif" font-size="13" lengthAdjust="spacing" textLength="218.9434" x="531.8794" y="352.5771">editCard(addedIndex, restoredQty, ...)</text></g><path d="M1328,328.9063 L1328,370.9063 L1512,370.9063 L1512,338.9063 L1502,328.9063 L1328,328.9063" fill="#FEFFDD" style="stroke:#181818;stroke-width:0.5;"/><path d="M1502,328.9063 L1502,338.9063 L1512,338.9063 L1502,328.9063" fill="#FEFFDD" style="stroke:#181818;stroke-width:0.5;"/><text fill="#000000" font-family="sans-serif" font-size="13" lengthAdjust="spacing" textLength="163.3315" x="1334" y="347.4014">subtracts the added quantity</text><text fill="#000000" font-family="sans-serif" font-size="13" lengthAdjust="spacing" textLength="124.2744" x="1334" y="363.7529">from the existing card</text><line style="stroke:#000000;stroke-width:1;stroke-dasharray:2,2;" x1="463.1348" x2="1533.4194" y1="377.6094" y2="377.6094"/><text fill="#000000" font-family="sans-serif" font-size="11" font-weight="bold" lengthAdjust="spacing" textLength="104.8438" x="468.1348" y="389.0283">[wasMerged = false]</text><g class="message" data-entity-1="part4" data-entity-2="part8" id="msg8"><polygon fill="#181818" points="1311.3052,413.7969,1321.3052,417.7969,1311.3052,421.7969,1315.3052,417.7969" style="stroke:#181818;stroke-width:1;"/><line style="stroke:#181818;stroke-width:1;" x1="524.8794" x2="1317.3052" y1="417.7969" y2="417.7969"/><text fill="#000000" font-family="sans-serif" font-size="13" lengthAdjust="spacing" textLength="195.1079" x="531.8794" y="412.9404">removeCardByIndex(addedIndex)</text></g><path d="M1328,397.4453 L1328,423.4453 L1518,423.4453 L1518,407.4453 L1508,397.4453 L1328,397.4453" fill="#FEFFDD" style="stroke:#181818;stroke-width:0.5;"/><path d="M1508,397.4453 L1508,407.4453 L1518,407.4453 L1508,397.4453" fill="#FEFFDD" style="stroke:#181818;stroke-width:0.5;"/><text fill="#000000" font-family="sans-serif" font-size="13" lengthAdjust="spacing" textLength="169.1143" x="1334" y="415.9404">deletes the newly added card</text><line style="stroke:#000000;stroke-width:1;stroke-dasharray:2,2;" x1="40.5586" x2="1543.4194" y1="436.7969" y2="436.7969"/><text fill="#000000" font-family="sans-serif" font-size="11" font-weight="bold" lengthAdjust="spacing" textLength="182.7515" x="45.5586" y="448.2158">[last command was EditCommand]</text><g class="message" data-entity-1="part3" data-entity-2="part5" id="msg10"><polygon fill="#181818" points="625.9756,469.9844,635.9756,473.9844,625.9756,477.9844,629.9756,473.9844" style="stroke:#181818;stroke-width:1;"/><line style="stroke:#181818;stroke-width:1;" x1="285.106" x2="631.9756" y1="473.9844" y2="473.9844"/><text fill="#000000" font-family="sans-serif" font-size="13" lengthAdjust="spacing" textLength="79.4917" x="292.106" y="469.1279">undo(context)</text></g><g class="message" data-entity-1="part5" data-entity-2="part8" id="msg11"><polygon fill="#181818" points="1311.3052,511.5117,1321.3052,515.5117,1311.3052,519.5117,1315.3052,515.5117" style="stroke:#181818;stroke-width:1;"/><line style="stroke:#181818;stroke-width:1;" x1="637.9756" x2="1317.3052" y1="515.5117" y2="515.5117"/><text fill="#000000" font-family="sans-serif" font-size="13" lengthAdjust="spacing" textLength="299.1333" x="644.9756" y="510.6553">editCard(targetIndex, oldName, oldQty, oldPrice, ...)</text></g><path d="M1328,486.9844 L1328,528.9844 L1502,528.9844 L1502,496.9844 L1492,486.9844 L1328,486.9844" fill="#FEFFDD" style="stroke:#181818;stroke-width:0.5;"/><path d="M1492,486.9844 L1492,496.9844 L1502,496.9844 L1492,486.9844" fill="#FEFFDD" style="stroke:#181818;stroke-width:0.5;"/><text fill="#000000" font-family="sans-serif" font-size="13" lengthAdjust="spacing" textLength="153.188" x="1334" y="505.4795">restores all old field values</text><text fill="#000000" font-family="sans-serif" font-size="13" lengthAdjust="spacing" textLength="132.2407" x="1334" y="521.8311">saved during execute()</text><line style="stroke:#000000;stroke-width:1;stroke-dasharray:2,2;" x1="40.5586" x2="1543.4194" y1="535.6875" y2="535.6875"/><text fill="#000000" font-family="sans-serif" font-size="11" font-weight="bold" lengthAdjust="spacing" textLength="272.626" x="45.5586" y="547.1064">[last command was RemoveCardByIndexCommand]</text><g class="message" data-entity-1="part3" data-entity-2="part6" id="msg13"><polygon fill="#181818" points="793.1475,568.875,803.1475,572.875,793.1475,576.875,797.1475,572.875" style="stroke:#181818;stroke-width:1;"/><line style="stroke:#181818;stroke-width:1;" x1="285.106" x2="799.1475" y1="572.875" y2="572.875"/><text fill="#000000" font-family="sans-serif" font-size="13" lengthAdjust="spacing" textLength="79.4917" x="292.106" y="568.0186">undo(context)</text></g><g class="message" data-entity-1="part6" data-entity-2="part8" id="msg14"><polygon fill="#181818" points="1311.3052,610.4023,1321.3052,614.4023,1311.3052,618.4023,1315.3052,614.4023" style="stroke:#181818;stroke-width:1;"/><line style="stroke:#181818;stroke-width:1;" x1="805.1475" x2="1317.3052" y1="614.4023" y2="614.4023"/><text fill="#000000" font-family="sans-serif" font-size="13" lengthAdjust="spacing" textLength="253.6333" x="812.1475" y="609.5459">addCardAtIndex(targetIndex, removedCard)</text></g><path d="M1328,585.875 L1328,627.875 L1470,627.875 L1470,595.875 L1460,585.875 L1328,585.875" fill="#FEFFDD" style="stroke:#181818;stroke-width:0.5;"/><path d="M1460,585.875 L1460,595.875 L1470,595.875 L1460,585.875" fill="#FEFFDD" style="stroke:#181818;stroke-width:0.5;"/><text fill="#000000" font-family="sans-serif" font-size="13" lengthAdjust="spacing" textLength="121.3799" x="1334" y="604.3701">re-inserts saved card</text><text fill="#000000" font-family="sans-serif" font-size="13" lengthAdjust="spacing" textLength="121.3989" x="1334" y="620.7217">at its original position</text><line style="stroke:#000000;stroke-width:1;stroke-dasharray:2,2;" x1="40.5586" x2="1543.4194" y1="634.5781" y2="634.5781"/><text fill="#000000" font-family="sans-serif" font-size="11" font-weight="bold" lengthAdjust="spacing" textLength="273.856" x="45.5586" y="645.9971">[last command was RemoveCardByNameCommand]</text><g class="message" data-entity-1="part3" data-entity-2="part7" id="msg16"><polygon fill="#181818" points="1016.3364,667.7656,1026.3364,671.7656,1016.3364,675.7656,1020.3364,671.7656" style="stroke:#181818;stroke-width:1;"/><line style="stroke:#181818;stroke-width:1;" x1="285.106" x2="1022.3364" y1="671.7656" y2="671.7656"/><text fill="#000000" font-family="sans-serif" font-size="13" lengthAdjust="spacing" textLength="79.4917" x="292.106" y="666.9092">undo(context)</text></g><g class="message" data-entity-1="part7" data-entity-2="part8" id="msg17"><polygon fill="#181818" points="1311.3052,709.293,1321.3052,713.293,1311.3052,717.293,1315.3052,713.293" style="stroke:#181818;stroke-width:1;"/><line style="stroke:#181818;stroke-width:1;" x1="1028.3364" x2="1317.3052" y1="713.293" y2="713.293"/><text fill="#000000" font-family="sans-serif" font-size="13" lengthAdjust="spacing" textLength="270.9688" x="1035.3364" y="708.4365">addCardAtIndex(removedIndex, removedCard)</text></g><path d="M1328,684.7656 L1328,726.7656 L1470,726.7656 L1470,694.7656 L1460,684.7656 L1328,684.7656" fill="#FEFFDD" style="stroke:#181818;stroke-width:0.5;"/><path d="M1460,684.7656 L1460,694.7656 L1470,694.7656 L1460,684.7656" fill="#FEFFDD" style="stroke:#181818;stroke-width:0.5;"/><text fill="#000000" font-family="sans-serif" font-size="13" lengthAdjust="spacing" textLength="121.3799" x="1334" y="703.2607">re-inserts saved card</text><text fill="#000000" font-family="sans-serif" font-size="13" lengthAdjust="spacing" textLength="121.3989" x="1334" y="719.6123">at its original position</text><g class="message" data-entity-1="part3" data-entity-2="part2" id="msg19"><polygon fill="#181818" points="111.3516,757.8203,101.3516,761.8203,111.3516,765.8203,107.3516,761.8203" style="stroke:#181818;stroke-width:1;"/><line style="stroke:#181818;stroke-width:1;" x1="105.3516" x2="284.106" y1="761.8203" y2="761.8203"/><text fill="#000000" font-family="sans-serif" font-size="13" lengthAdjust="spacing" textLength="143.7744" x="117.3516" y="756.9639">ui.printUndoSuccess(list)</text></g><g class="message" data-entity-1="part3" data-entity-2="part2" id="msg20"><polygon fill="#181818" points="111.3516,788.1719,101.3516,792.1719,111.3516,796.1719,107.3516,792.1719" style="stroke:#181818;stroke-width:1;"/><line style="stroke:#181818;stroke-width:1;stroke-dasharray:2,2;" x1="105.3516" x2="284.106" y1="792.1719" y2="792.1719"/><text fill="#000000" font-family="sans-serif" font-size="13" lengthAdjust="spacing" textLength="160.7544" x="117.3516" y="787.3154">CommandResult(exit=false)</text></g><path d="M105,805.1719 L105,831.1719 L209,831.1719 L209,815.1719 L199,805.1719 L105,805.1719" fill="#FEFFDD" style="stroke:#181818;stroke-width:0.5;"/><path d="M199,805.1719 L199,815.1719 L209,815.1719 L199,805.1719" fill="#FEFFDD" style="stroke:#181818;stroke-width:0.5;"/><text fill="#000000" font-family="sans-serif" font-size="13" lengthAdjust="spacing" textLength="83.0908" x="111" y="823.667">storage.save()</text><?plantuml-src jLJ1Rfmm4Btp5TQUG4huW4gfbAugjL8RjQbosukBPy6IiQazR9Q_xumXMKEWcqivx8BdUUQzDsFB2fqNJm5yracFkjATj2ZsqgkzCmOuF8iyMUNshcsbLRFrUwNMbZyhZMlhZz2w4t2PJyDNg-1y3VGWMrZ3S3Hyqm6pZ5M8suzpykA3sFN4UPVDbmcNI24KdA7g4VBAMOGp5baQVeDkgABpWxWJ4xwiuKNebp6M5rac3Rv2TH3GTZXaWfv5yYNbNfTGDIxVFJXijAq5khYbt55IC064aG6fzfZXMOQq0Ii5Bb7EJh6BJaOpJqho7NmDYaIXxo46-4dsJbIZuUmPTvU-SwaKgDZ76-61zOBwYSEDACkoU4ra7OBmkcvuR-X_evSL1e4DY9X0_EcffHg7WprwryO0dAaKEr1HdPWfoa_97YMjl8EjNyvSGdk3f08322D52yzcc8XUo93T6mr9Ht-b8qbujILfVCjsb6G1Jhuxe_YGn9VeFVt_yBg2f0ipSLEZ0dNVC5WSDT3lIPeUmi46UIAbglVi_ilfs1o_pGEz8dqBk-h39dXX2ZM6F-z7E-RMZ9sFyLKVRhMbkuD6STJCtJrOYKBJaYEOjjA8pWMDsjdtE93ULbSCIA1NzQVOVykV5FyN_N7chrzW7GqECknNNrKGGcw8wU9QNTavnHuXz0PpElvu5mzuaIMatV7DFfvbMKF94lBYBm00?></g></svg>