<?plantuml 1.2026.2?><svg xmlns="http://www.w3.org/2000/svg" xmlns:xlink="http://www.w3.org/1999/xlink" contentStyleType="text/css" data-diagram-type="CLASS" height="367px" preserveAspectRatio="none" style="width:167px;height:367px;background:#FFFFFF;" version="1.1" viewBox="0 0 167 367" width="167px" zoomAndPan="magnify"><defs/><g><!--class CardCollector--><g class="entity" data-qualified-name="CardCollector" data-source-line="1" id="ent0002"><rect fill="#F1F1F1" height="118.4375" rx="2.5" ry="2.5" style="stroke:#181818;stroke-width:0.5;" width="153.6064" x="7" y="7"/><ellipse cx="38.2092" cy="23" fill="#ADD1B2" rx="11" ry="11" style="stroke:#181818;stroke-width:1;"/><path d="M40.9749,18.875 Q41.1311,18.6563 41.3186,18.5469 Q41.5061,18.4375 41.7249,18.4375 Q42.0999,18.4375 42.3342,18.7031 Q42.5686,18.9531 42.5686,19.5625 L42.5686,21.0156 Q42.5686,21.625 42.3342,21.8906 Q42.0999,22.1563 41.7249,22.1563 Q41.3811,22.1563 41.178,21.9531 Q40.9749,21.7656 40.8655,21.25 Q40.8186,20.8906 40.6311,20.7031 Q40.303,20.3281 39.6936,20.1094 Q39.0842,19.8906 38.4592,19.8906 Q37.6936,19.8906 37.053,20.2188 Q36.428,20.5469 35.928,21.2969 Q35.4436,22.0469 35.4436,23.0781 L35.4436,24.1719 Q35.4436,25.4063 36.3342,26.2344 Q37.2249,27.0469 38.8186,27.0469 Q39.7561,27.0469 40.4124,26.7969 Q40.803,26.6406 41.2249,26.2031 Q41.4905,25.9375 41.6311,25.8594 Q41.7874,25.7813 41.9905,25.7813 Q42.3186,25.7813 42.5686,26.0469 Q42.8342,26.2969 42.8342,26.6406 Q42.8342,26.9844 42.4905,27.3906 Q41.9905,27.9688 41.1936,28.2969 Q40.1155,28.75 38.8186,28.75 Q37.303,28.75 36.0999,28.125 Q35.1155,27.625 34.428,26.5625 Q33.7405,25.4844 33.7405,24.2031 L33.7405,23.0469 Q33.7405,21.7188 34.3499,20.5781 Q34.9749,19.4219 36.0686,18.8125 Q37.1624,18.1875 38.3967,18.1875 Q39.1311,18.1875 39.7717,18.3594 Q40.428,18.5156 40.9749,18.875 Z " fill="#000000"/><text fill="#000000" font-family="sans-serif" font-size="14" lengthAdjust="spacing" textLength="85.5859" x="55.8113" y="28.7285">CardCollector</text><line style="stroke:#181818;stroke-width:0.5;" x1="8" x2="159.6064" y1="39" y2="39"/><g data-visibility-modifier="PRIVATE_FIELD"><rect fill="none" height="6" style="stroke:#C82930;stroke-width:1;" width="6" x="15" y="50.3047"/></g><text fill="#000000" font-family="sans-serif" font-size="14" lengthAdjust="spacing" textLength="127.6064" x="27" y="57.5332">inventory : CardsList</text><g data-visibility-modifier="PRIVATE_FIELD"><rect fill="none" height="6" style="stroke:#C82930;stroke-width:1;" width="6" x="15" y="67.9141"/></g><text fill="#000000" font-family="sans-serif" font-size="14" lengthAdjust="spacing" textLength="115.917" x="27" y="75.1426">wishlist : CardsList</text><g data-visibility-modifier="PRIVATE_FIELD"><rect fill="none" height="6" style="stroke:#C82930;stroke-width:1;" width="6" x="15" y="85.5234"/></g><text fill="#000000" font-family="sans-serif" font-size="14" lengthAdjust="spacing" textLength="35.7861" x="27" y="92.752">ui : Ui</text><g data-visibility-modifier="PRIVATE_FIELD"><rect fill="none" height="6" style="stroke:#C82930;stroke-width:1;" width="6" x="15" y="103.1328"/></g><text fill="#000000" font-family="sans-serif" font-size="14" lengthAdjust="spacing" textLength="92.5859" x="27" y="110.3613">parser : Parser</text><line style="stroke:#181818;stroke-width:0.5;" x1="8" x2="159.6064" y1="117.4375" y2="117.4375"/></g><!--class CardsList--><g class="entity" data-qualified-name="CardsList" data-source-line="8" id="ent0003"><rect fill="#F1F1F1" height="48" rx="2.5" ry="2.5" style="stroke:#181818;stroke-width:0.5;" width="91.1309" x="38.5" y="203"/><ellipse cx="53.5" cy="219" fill="#ADD1B2" rx="11" ry="11" style="stroke:#181818;stroke-width:1;"/><path d="M56.2656,214.875 Q56.4219,214.6563 56.6094,214.5469 Q56.7969,214.4375 57.0156,214.4375 Q57.3906,214.4375 57.625,214.7031 Q57.8594,214.9531 57.8594,215.5625 L57.8594,217.0156 Q57.8594,217.625 57.625,217.8906 Q57.3906,218.1563 57.0156,218.1563 Q56.6719,218.1563 56.4688,217.9531 Q56.2656,217.7656 56.1563,217.25 Q56.1094,216.8906 55.9219,216.7031 Q55.5938,216.3281 54.9844,216.1094 Q54.375,215.8906 53.75,215.8906 Q52.9844,215.8906 52.3438,216.2188 Q51.7188,216.5469 51.2188,217.2969 Q50.7344,218.0469 50.7344,219.0781 L50.7344,220.1719 Q50.7344,221.4063 51.625,222.2344 Q52.5156,223.0469 54.1094,223.0469 Q55.0469,223.0469 55.7031,222.7969 Q56.0938,222.6406 56.5156,222.2031 Q56.7813,221.9375 56.9219,221.8594 Q57.0781,221.7813 57.2813,221.7813 Q57.6094,221.7813 57.8594,222.0469 Q58.125,222.2969 58.125,222.6406 Q58.125,222.9844 57.7813,223.3906 Q57.2813,223.9688 56.4844,224.2969 Q55.4063,224.75 54.1094,224.75 Q52.5938,224.75 51.3906,224.125 Q50.4063,223.625 49.7188,222.5625 Q49.0313,221.4844 49.0313,220.2031 L49.0313,219.0469 Q49.0313,217.7188 49.6406,216.5781 Q50.2656,215.4219 51.3594,214.8125 Q52.4531,214.1875 53.6875,214.1875 Q54.4219,214.1875 55.0625,214.3594 Q55.7188,214.5156 56.2656,214.875 Z " fill="#000000"/><text fill="#000000" font-family="sans-serif" font-size="14" lengthAdjust="spacing" textLength="59.1309" x="67.5" y="224.7285">CardsList</text><line style="stroke:#181818;stroke-width:0.5;" x1="39.5" x2="128.6309" y1="235" y2="235"/><line style="stroke:#181818;stroke-width:0.5;" x1="39.5" x2="128.6309" y1="243" y2="243"/></g><!--class Card--><g class="entity" data-qualified-name="Card" data-source-line="10" id="ent0006"><rect fill="#F1F1F1" height="48" rx="2.5" ry="2.5" style="stroke:#181818;stroke-width:0.5;" width="62.3447" x="53" y="312"/><ellipse cx="68" cy="328" fill="#ADD1B2" rx="11" ry="11" style="stroke:#181818;stroke-width:1;"/><path d="M70.7656,323.875 Q70.9219,323.6563 71.1094,323.5469 Q71.2969,323.4375 71.5156,323.4375 Q71.8906,323.4375 72.125,323.7031 Q72.3594,323.9531 72.3594,324.5625 L72.3594,326.0156 Q72.3594,326.625 72.125,326.8906 Q71.8906,327.1563 71.5156,327.1563 Q71.1719,327.1563 70.9688,326.9531 Q70.7656,326.7656 70.6563,326.25 Q70.6094,325.8906 70.4219,325.7031 Q70.0938,325.3281 69.4844,325.1094 Q68.875,324.8906 68.25,324.8906 Q67.4844,324.8906 66.8438,325.2188 Q66.2188,325.5469 65.7188,326.2969 Q65.2344,327.0469 65.2344,328.0781 L65.2344,329.1719 Q65.2344,330.4063 66.125,331.2344 Q67.0156,332.0469 68.6094,332.0469 Q69.5469,332.0469 70.2031,331.7969 Q70.5938,331.6406 71.0156,331.2031 Q71.2813,330.9375 71.4219,330.8594 Q71.5781,330.7813 71.7813,330.7813 Q72.1094,330.7813 72.3594,331.0469 Q72.625,331.2969 72.625,331.6406 Q72.625,331.9844 72.2813,332.3906 Q71.7813,332.9688 70.9844,333.2969 Q69.9063,333.75 68.6094,333.75 Q67.0938,333.75 65.8906,333.125 Q64.9063,332.625 64.2188,331.5625 Q63.5313,330.4844 63.5313,329.2031 L63.5313,328.0469 Q63.5313,326.7188 64.1406,325.5781 Q64.7656,324.4219 65.8594,323.8125 Q66.9531,323.1875 68.1875,323.1875 Q68.9219,323.1875 69.5625,323.3594 Q70.2188,323.5156 70.7656,323.875 Z " fill="#000000"/><text fill="#000000" font-family="sans-serif" font-size="14" lengthAdjust="spacing" textLength="30.3447" x="82" y="333.7285">Card</text><line style="stroke:#181818;stroke-width:0.5;" x1="54" x2="114.3447" y1="344" y2="344"/><line style="stroke:#181818;stroke-width:0.5;" x1="54" x2="114.3447" y1="352" y2="352"/></g><!--link CardCollector to CardsList--><g class="link" data-entity-1="ent0002" data-entity-2="ent0003" data-link-type="dependency" data-source-line="8" id="lnk4"><path codeLine="8" d="M45.45,125.33 C40.73,134.9 36.65,144.98 34,155 C31.96,162.73 31.05,165.57 34,173 C38.48,184.29 42.3999,190.3148 50.8299,198.7548" fill="none" id="CardCollector-to-CardsList" style="stroke:#181818;stroke-width:1;"/><polygon fill="#181818" points="55.07,203,51.5399,193.8055,51.5366,199.4624,45.8797,199.459,55.07,203" style="stroke:#181818;stroke-width:1;"/><text fill="#000000" font-family="sans-serif" font-size="13" lengthAdjust="spacing" textLength="52.749" x="35" y="169.4951">inventory</text></g><!--link CardCollector to CardsList--><g class="link" data-entity-1="ent0002" data-entity-2="ent0003" data-link-type="dependency" data-source-line="9" id="lnk5"><path codeLine="9" d="M91.53,125.04 C92.69,140.62 93.17,157.45 92,173 C91.26,182.84 90.7194,187.6872 89.2194,196.9472" fill="none" id="CardCollector-to-CardsList-1" style="stroke:#181818;stroke-width:1;"/><polygon fill="#181818" points="88.26,202.87,93.6477,194.6254,89.0595,197.9343,85.7506,193.3462,88.26,202.87" style="stroke:#181818;stroke-width:1;"/><text fill="#000000" font-family="sans-serif" font-size="13" lengthAdjust="spacing" textLength="41.8945" x="93" y="169.4951">wishlist</text></g><!--link CardsList to Card--><g class="link" data-entity-1="ent0003" data-entity-2="ent0006" data-link-type="dependency" data-source-line="10" id="lnk7"><path codeLine="10" d="M84,251.22 C84,269.16 84,287.89 84,305.83" fill="none" id="CardsList-to-Card" style="stroke:#181818;stroke-width:1;"/><polygon fill="#181818" points="84,311.83,88,302.83,84,306.83,80,302.83,84,311.83" style="stroke:#181818;stroke-width:1;"/></g><?plantuml-src Iyv9B2vMS4uiId7Epyb9JIx9BrAevb9Gq5N8p2jBpGDoAnMimFB5Ffd59M2PyipYZ1mW1qEYD1Ce59e9PXSa5XMd5W7v0M06LoqN5wejkhfs2Er0TN3x2AY3sSw548Gf0G00?></g></svg>